<?xml version="1.0" encoding="utf-8"?>
<!-- Generator: Adobe Illustrator 23.0.3, SVG Export Plug-In . SVG Version: 6.00 Build 0)  -->
<svg version="1.1" id="Livello_1" xmlns="http://www.w3.org/2000/svg" xmlns:xlink="http://www.w3.org/1999/xlink" x="0px" y="0px"
	 viewBox="0 0 841.9 595.3" style="enable-background:new 0 0 841.9 595.3;" xml:space="preserve">
<style type="text/css">
	.st0{fill:none;stroke:#000000;stroke-miterlimit:10;}
	.st1{fill:#1B55A3;}
	.st2{fill:none;stroke:#000000;stroke-width:2.5;stroke-miterlimit:10;}
</style>
<g>
	<path class="st0" d="M144,115.7"/>
	<path class="st1" d="M126.4,353.6c0,0-42.3,83.9,34.8,180.5c0,0,11.7,14.1,2.6,22.4c-1.6,1.5-3.7,2.2-5.9,2.1
		c-3.6-0.1-9.8-1.4-16.8-7.6c0,0-96.2-73.7-70.5-270c0,0,28-178.3,173.1-150.4c0,0,54,11.3,68.6,63.1c6.9,24.5,1.4,49.8-11.2,72.3
		c-18.5,33.1-64.2,88-127.7,98.6c0,0,7.3,156.9,221.7,148.4c0,0,20.6,0,18.2,9.6c-0.7,2.8-3,4.9-5.7,5.7
		c-23.7,7.4-176.4,49-248.3-78.5c0,0-16.6-33.4-19.2-68.1c-1.4-18.1,9.2-35,26.2-41.5c0.2-0.1,0.4-0.1,0.6-0.2l0,0
		c0.2,0,119.2-25.5,96.9-138.5c-2.6-13.2-12-24.4-24.9-28.6c-6.2-2-13.6-3.5-22.5-3.7c-13.8-0.4-33.1,7.2-43,16.7
		C139.7,218.2,83.8,291.3,126.4,353.6z"/>
	<path class="st1" d="M425.9,403.9c-8.3,6.7-19.2,10.7-30.6,9.8c-1.5-0.1-3.1-0.2-4.6-0.3c-23.9-0.6-47.4-10.3-47.4-38.1
		c0-20.8,28.1-40.9,56.8-41.8c1.3,0,2.6-0.2,3.8-0.3c25.5-3.5,78.3,11.6,78.3,56.6c0,46.1-39.4,73.1-88.8,73.1
		c-48.4,4-117.4-27.1-113.4-79.2c0-45.1,48.3-94.4,112.3-85.9c4,0.5,8.1-0.1,11.6-2.1c5.2-3,5-6.6,3.6-9.5c-1.4-2.9-4.2-4.9-7.3-5.7
		c-9.8-2.6-16.8-3.8-28.3-3.8c-51.3,0-99.4,31.5-122.4,72.2c-16.7,29.6-16.6,65.5-1.1,95.7c18,35.3,49,56.7,105.9,58.4
		c6.3,0.2,12.6-0.1,18.8-0.9c69.8-8.3,133.5-32.4,147.5-97.9c2.1-9.6,2.7-19.4,1.1-29c-7.5-45.3-51.8-63.2-103.8-69.7
		c-6.4-0.8-12.8-1.1-19.2-1c-32.7,0.5-82.9,5.5-97.5,58c-2.9,10.4-3.1,21.6,0.5,31.8c5.6,15.8,18.7,28.6,39.5,38.3
		c17.7,8.2,37.4,11.6,56.8,8.9c17.1-2.4,33.9-8.5,44.8-17.6c2.1-1.7,3.4-4.2,3.7-6.9C447.5,409.7,446,397.8,425.9,403.9L425.9,403.9
		z"/>
	<path class="st1" d="M569.3,135.5c0-79.5,60.9-124,139.3-119.1c6.7,0.4,13.4,1.6,19.8,3.5l0,0c8.8,2.6,9.4,14.7,1,18.2l0,0
		c-1.2,0.5-2.5,0.7-3.7,0.6c-58.3-2.9-112.5,30.1-106.5,90.4c0,0-0.8,31.4,17.6,57.1c4.2,5.9,8.3,11.8,12.1,17.9
		c19.1,31.7,44.9,68.7,44.9,117.6v2.2c-10.2,139.6-117.1,144.9-178.5,145.1c-4.7,0-9.3-0.3-13.9-0.9l-1-0.1
		c-1.6-0.2-3.1-0.7-4.4-1.5c-3-1.9-3.1-4-2.4-5.8c1-2.3,3.4-3.8,5.9-4l5.6-0.4c5-0.4,9.9-0.6,14.9-0.6
		c81.2-0.1,103.1-49.7,103.1-49.7c42.3-105.3-29.4-190.6-29.4-190.6C578.2,191.3,569.3,163.8,569.3,135.5"/>
	<path class="st1" d="M504.3,175.5c0-79.5,60.9-124,139.3-119.1c6.7,0.4,13.4,1.6,19.8,3.5l0,0c8.8,2.6,9.4,14.7,1,18.2l0,0
		c-1.2,0.5-2.5,0.7-3.7,0.6c-58.3-2.9-112.5,30.1-106.5,90.4c0,0-0.8,31.4,17.6,57.1c4.2,5.9,8.3,11.8,12.1,17.9
		c19.1,31.7,44.9,68.7,44.9,117.6v2.2c-10.2,139.6-117.1,144.9-178.5,145.1c-4.7,0-9.3-0.3-13.9-0.9l-1-0.1
		c-1.6-0.2-3.1-0.7-4.4-1.5c-3-1.9-3.1-4-2.4-5.8c1-2.3,3.4-3.8,5.9-4l5.6-0.4c5-0.4,9.9-0.6,14.9-0.6
		c81.2-0.1,103.1-49.7,103.1-49.7c42.3-105.3-29.4-190.6-29.4-190.6C513.2,231.3,504.3,203.8,504.3,175.5"/>
	<rect x="716.3" y="362.9" class="st1" width="41.6" height="107.5"/>
	<ellipse class="st1" cx="736.9" cy="322.2" rx="20" ry="19.9"/>
	<g>
		
			<ellipse transform="matrix(0.42 -0.9075 0.9075 0.42 135.8281 855.3812)" class="st2" cx="737.1" cy="321.4" rx="26.1" ry="70.6"/>
	</g>
	<g>
		
			<ellipse transform="matrix(0.9309 -0.3652 0.3652 0.9309 -67.491 290.3711)" class="st2" cx="733.8" cy="323.6" rx="70.6" ry="26"/>
	</g>
	<g>
		<path d="M581.7,508.3l19-9.2h1.9v65.6c0,4.4,0.2,7.1,0.5,8.1s1.1,1.9,2.3,2.5c1.2,0.6,3.5,0.9,7,1v2.1h-29.4v-2.1
			c3.7-0.1,6.1-0.4,7.1-0.9c1.1-0.6,1.8-1.3,2.2-2.2c0.4-0.9,0.6-3.7,0.6-8.4v-41.9c0-5.7-0.2-9.3-0.6-10.9
			c-0.3-1.2-0.8-2.1-1.5-2.7c-0.7-0.6-1.6-0.9-2.6-0.9c-1.4,0-3.4,0.6-5.9,1.8L581.7,508.3z"/>
		<path d="M649.5,539.2c-6.2-5-10.2-9.1-11.9-12.1c-1.8-3-2.7-6.2-2.7-9.5c0-5,2-9.4,5.9-13c3.9-3.6,9.1-5.5,15.6-5.5
			c6.3,0,11.4,1.7,15.2,5.1c3.8,3.4,5.8,7.3,5.8,11.6c0,2.9-1,5.9-3.1,8.9c-2.1,3-6.4,6.6-12.9,10.7c6.7,5.2,11.2,9.3,13.4,12.3
			c2.9,3.9,4.4,8,4.4,12.3c0,5.5-2.1,10.1-6.3,14c-4.2,3.9-9.7,5.8-16.5,5.8c-7.4,0-13.2-2.3-17.3-6.9c-3.3-3.7-5-7.8-5-12.1
			c0-3.4,1.2-6.8,3.5-10.2C639.8,547,643.8,543.3,649.5,539.2z M652.2,541.4c-3.2,2.7-5.5,5.6-7.1,8.7c-1.5,3.1-2.3,6.6-2.3,10.2
			c0,4.9,1.3,8.9,4.1,11.8c2.7,3,6.1,4.4,10.3,4.4c4.1,0,7.5-1.2,10-3.5c2.5-2.3,3.7-5.2,3.7-8.5c0-2.8-0.7-5.2-2.2-7.4
			C666,553.2,660.5,547.9,652.2,541.4z M658.5,533.1c4.6-4.1,7.5-7.4,8.7-9.8c1.2-2.4,1.8-5.1,1.8-8.1c0-4-1.1-7.2-3.4-9.4
			c-2.3-2.3-5.4-3.4-9.3-3.4s-7.1,1.1-9.5,3.4c-2.4,2.2-3.7,4.9-3.7,7.9c0,2,0.5,4,1.5,6c1,2,2.5,3.9,4.4,5.7L658.5,533.1z"/>
		<path d="M767.4,539.2c-6.2-5-10.2-9.1-11.9-12.1c-1.8-3-2.7-6.2-2.7-9.5c0-5,2-9.4,5.9-13c3.9-3.6,9.1-5.5,15.6-5.5
			c6.3,0,11.4,1.7,15.2,5.1c3.8,3.4,5.8,7.3,5.8,11.6c0,2.9-1,5.9-3.1,8.9c-2.1,3-6.4,6.6-12.9,10.7c6.7,5.2,11.2,9.3,13.4,12.3
			c2.9,3.9,4.4,8,4.4,12.3c0,5.5-2.1,10.1-6.3,14c-4.2,3.9-9.7,5.8-16.5,5.8c-7.4,0-13.2-2.3-17.3-6.9c-3.3-3.7-5-7.8-5-12.1
			c0-3.4,1.2-6.8,3.5-10.2C757.7,547,761.7,543.3,767.4,539.2z M770.1,541.4c-3.2,2.7-5.5,5.6-7.1,8.7c-1.5,3.1-2.3,6.6-2.3,10.2
			c0,4.9,1.3,8.9,4.1,11.8c2.7,3,6.1,4.4,10.3,4.4c4.1,0,7.5-1.2,10-3.5c2.5-2.3,3.7-5.2,3.7-8.5c0-2.8-0.7-5.2-2.2-7.4
			C783.9,553.2,778.3,547.9,770.1,541.4z M776.4,533.1c4.6-4.1,7.5-7.4,8.7-9.8c1.2-2.4,1.8-5.1,1.8-8.1c0-4-1.1-7.2-3.4-9.4
			c-2.3-2.3-5.4-3.4-9.3-3.4c-3.9,0-7.1,1.1-9.5,3.4c-2.4,2.2-3.7,4.9-3.7,7.9c0,2,0.5,4,1.5,6c1,2,2.5,3.9,4.4,5.7L776.4,533.1z"/>
		<g>
			<path d="M737.4,500.7v3.8L725,533.8c-1.6,3.9-3,7.4-4.1,10.5c-1.1,3.1-2,5.8-2.6,8.2s-1.1,4.4-1.4,6.2c-0.3,1.7-0.4,3.2-0.4,4.4
				c0,1.5,0.1,2.6,0.4,3.4s0.6,1.5,1,2.2c0.4,0.6,0.7,1.2,1,1.9c0.3,0.6,0.4,1.5,0.4,2.5c0,1.1-0.2,2-0.5,2.9
				c-0.4,0.8-0.8,1.5-1.4,2.1c-0.6,0.6-1.3,1-2,1.3c-0.8,0.3-1.6,0.4-2.4,0.4c-0.9,0-1.7-0.2-2.6-0.5c-0.8-0.3-1.6-0.8-2.3-1.5
				c-0.7-0.7-1.2-1.5-1.6-2.4c-0.4-0.9-0.6-2-0.6-3.2c0-1.3,0.2-2.9,0.7-4.7s1.1-3.8,1.9-5.9s1.8-4.5,2.9-7c1.1-2.5,2.2-5.2,3.5-8.1
				l15.6-36.7H709c-2.6,0-4.7,0.1-6.2,0.3c-1.5,0.2-2.7,0.7-3.6,1.5c-0.9,0.8-1.5,1.9-2,3.5c-0.4,1.5-0.9,3.6-1.3,6.3h-4.2v-20.6
				L737.4,500.7L737.4,500.7z"/>
		</g>
	</g>
	<g>
		<path d="M130.9,27.5c0,0,13.5-0.1,13.7,10.5v76c0,1.1-0.1,2.1-0.5,3.1c-0.9,2.4-3.1,6.4-9.2,9.3c-0.9,0.4-0.6,1.7,0.4,1.7
			c9.5,0,30,0,39.4,0c1,0,1.3-1.3,0.4-1.7c-6.1-2.9-8.4-6.9-9.2-9.3c-0.4-1-0.5-2.1-0.5-3.1V38c0.2-10.7,13.7-10.5,13.7-10.5V16.2
			h-48.9v11.3H130.9z"/>
		<path d="M386.5,27.5c0,0,13.5-0.1,13.7,10.5v76c0,1.1-0.1,2.1-0.5,3.1c-0.9,2.4-3.1,6.4-9.2,9.3c-0.9,0.4-0.6,1.7,0.4,1.7
			c9.5,0,30,0,39.4,0c1,0,1.3-1.3,0.4-1.7c-6.1-2.9-8.4-6.9-9.2-9.3c-0.4-1-0.5-2.1-0.5-3.1V38c0.2-10.7,13.7-10.5,13.7-10.5V16.2
			h-48.9v11.3H386.5z"/>
		<path d="M313.3,128.9c-13.7-5.2-14.2-17.2-14.2-17.2V36.8h8.4c2.5,0,4.9,1.3,6.3,3.4L328.3,62c12.1-5.3-4.3-43.2-4.3-43.2h-73.6
			c0,0-16.4,37.9-4.3,43.2l14.4-21.8c1.4-2.1,3.7-3.4,6.3-3.4h8.4v74.8c0,0-0.5,12-14.2,17.2c-1.3,0.5-1,2.3,0.4,2.3h51.5
			C314.3,131.2,314.6,129.4,313.3,128.9z"/>
		<path d="M544.4,96.3c3.4,2.4,5.9,5.9,6.8,9.9c2.4,10.2-7.1,11.9-7.1,11.9c-13.1,4.1-26.2-7.3-33.2-14.9c-2.8-3-4.8-6.6-6.4-10.3
			c-3.2-7.5-7.8-1.4-7.8-1.4l-4,36.7h69.1c2,0,3.8-1,4.9-2.6c12.7-18.1,9.1-33.7,2.2-44.8c-6.2-10-16-17.2-27.1-21.2
			c-17.8-6.4-21.6-13.6-22.3-17.5c-0.3-1.7,0.3-3.6,1.5-4.8c11.4-11.3,43.8,25.1,43.8,25.1V16.2c0,0-10.6,12.3-24.6,4.6
			c-7.4-4.1-15.8-6.1-24.2-4.9c-14.6,2-31.4,11-23.2,43.5c0,0,0.9,10.8,30.7,24.5c7,3.2,13.7,7.1,20,11.6L544.4,96.3z"/>
	</g>
</g>
<g id="Livello_3">
</g>
</svg>
